<svg id="Layer_1" data-name="Layer 1" xmlns="http://www.w3.org/2000/svg" viewBox="0 0 397.19 110.66">
  <title>Artboard 55</title>
  <g>
    <path d="M174.78,107.92l-6.49-29.25a1.87,1.87,0,0,0-1.83-1.47H140a1.88,1.88,0,0,0-1.84,1.47l-6.48,29.25a1.88,1.88,0,0,1-1.84,1.48h-1.31a1.88,1.88,0,0,1-1.83-2.29L148.65,8.2a1.88,1.88,0,0,1,1.84-1.47H156a1.87,1.87,0,0,1,1.83,1.47l21.95,98.91a1.88,1.88,0,0,1-1.84,2.29h-1.31A1.87,1.87,0,0,1,174.78,107.92ZM141.91,72.19h22.65a1.88,1.88,0,0,0,1.83-2.29L155.07,19.07a1.88,1.88,0,0,0-3.67,0L140.07,69.9A1.89,1.89,0,0,0,141.91,72.19Z" fill="#a5b452" stroke="#a5b452" stroke-miterlimit="10"/>
    <path d="M225.22,35.64v1.25a1.88,1.88,0,0,1-1.88,1.88h-4A14.38,14.38,0,0,0,213.38,40a16.66,16.66,0,0,0-4.86,3.26A15,15,0,0,0,204,54.11v53.41a1.88,1.88,0,0,1-1.88,1.88h-1.25a1.88,1.88,0,0,1-1.88-1.88V41.41a1.88,1.88,0,0,0-1.88-1.88h-1.25a1.88,1.88,0,0,1-1.88-1.88V36.4a1.88,1.88,0,0,1,1.88-1.88h6.26A1.88,1.88,0,0,1,204,36.4v4.35a19.7,19.7,0,0,1,14.88-7h4.5A1.88,1.88,0,0,1,225.22,35.64Z" fill="#a5b452" stroke="#a5b452" stroke-miterlimit="10"/>
    <path d="M276.2.5a1.88,1.88,0,0,1,1.88,1.88V107.52a1.88,1.88,0,0,1-1.88,1.88h-1.26a1.88,1.88,0,0,1-1.88-1.88v-.09a1.88,1.88,0,0,0-3-1.51,22.15,22.15,0,0,1-3.83,2.34,19.49,19.49,0,0,1-8.51,1.9,19.91,19.91,0,0,1-8-1.6A20,20,0,0,1,239,97.78a19.91,19.91,0,0,1-1.6-8V54.11a19.91,19.91,0,0,1,1.6-8,20,20,0,0,1,10.78-10.78,19.91,19.91,0,0,1,8-1.6,19.77,19.77,0,0,1,12.33,4.14,1.88,1.88,0,0,0,3-1.5v-34A1.88,1.88,0,0,1,274.94.5ZM257.72,105.15a14.94,14.94,0,0,0,6-1.22,15.17,15.17,0,0,0,8.13-8.13,14.91,14.91,0,0,0,1.21-6V54.11a15,15,0,0,0-1.21-6A15.2,15.2,0,0,0,263.72,40a15.36,15.36,0,0,0-12,0,15.14,15.14,0,0,0-8.12,8.12,15,15,0,0,0-1.22,6v35.7a14.92,14.92,0,0,0,1.22,6,15.11,15.11,0,0,0,8.12,8.13A15,15,0,0,0,257.72,105.15Z" fill="#a5b452" stroke="#a5b452" stroke-miterlimit="10"/>
    <path d="M326.22,67.78q-1.37.47-4.56,1.75c-2.12.86-4.43,1.75-6.91,2.66s-4.88,1.82-7.21,2.73c-1.66.65-3.06,1.17-4.21,1.56a1.88,1.88,0,0,0-1.26,1.78V89.81a14.75,14.75,0,0,0,1.22,6,15.11,15.11,0,0,0,8.12,8.13,15.36,15.36,0,0,0,12,0,15.17,15.17,0,0,0,8.13-8.13,14.58,14.58,0,0,0,1.12-4.3,1.88,1.88,0,0,1,1.87-1.69h1.26a1.88,1.88,0,0,1,1.88,2,20,20,0,0,1-1.5,5.94,20.1,20.1,0,0,1-10.79,10.78,20.65,20.65,0,0,1-15.94,0,20.2,20.2,0,0,1-6.46-4.33,20.49,20.49,0,0,1-4.33-6.45,20.08,20.08,0,0,1-1.59-8V54.11a20.08,20.08,0,0,1,1.59-8A20.49,20.49,0,0,1,303,39.69a20.2,20.2,0,0,1,6.46-4.33,20.65,20.65,0,0,1,15.94,0,20.1,20.1,0,0,1,10.79,10.78A19.7,19.7,0,0,1,337.76,54v.15Q337.76,63.53,326.22,67.78Zm-8.81-29a14.94,14.94,0,0,0-6,1.22,15.14,15.14,0,0,0-8.12,8.12,14.84,14.84,0,0,0-1.22,6v14.7a1.89,1.89,0,0,0,2.57,1.76l3.05-1.19q3.35-1.29,6.68-2.51t6.16-2.28l4-1.52A21.57,21.57,0,0,0,330,59.88,7.07,7.07,0,0,0,332.75,54,14.41,14.41,0,0,0,331.54,48a16,16,0,0,0-3.27-4.79A15.66,15.66,0,0,0,323.41,40,14.94,14.94,0,0,0,317.41,38.77Z" fill="#a5b452" stroke="#a5b452" stroke-miterlimit="10"/>
    <path d="M376.34,33.76a19.91,19.91,0,0,1,8,1.6,20.2,20.2,0,0,1,6.46,4.33,20.49,20.49,0,0,1,4.33,6.45,20.08,20.08,0,0,1,1.59,8v53.41a1.88,1.88,0,0,1-1.88,1.88h-1.25a1.88,1.88,0,0,1-1.88-1.88V54.11a15,15,0,0,0-1.22-6,15.49,15.49,0,0,0-3.26-4.86A15.66,15.66,0,0,0,382.34,40a15.36,15.36,0,0,0-12,0,15.66,15.66,0,0,0-4.86,3.26,15.32,15.32,0,0,0-3.26,4.86,14.84,14.84,0,0,0-1.22,6v53.41a1.88,1.88,0,0,1-1.88,1.88h-1.25a1.88,1.88,0,0,1-1.88-1.88V36.4a1.88,1.88,0,0,1,1.88-1.88h1.25A1.88,1.88,0,0,1,361,36.4h0a1.88,1.88,0,0,0,3,1.5,19.77,19.77,0,0,1,12.33-4.14Z" fill="#a5b452" stroke="#a5b452" stroke-miterlimit="10"/>
  </g>
  <g>
    <path d="M46.47,58a2.23,2.23,0,0,0,2.6-.16l.79-.79a2,2,0,0,0,.25-2.49L34.54,31.23a2,2,0,0,1,.23-2.48L39.46,24A1.93,1.93,0,0,0,40,22.22a4.35,4.35,0,0,1-.11-1,4.4,4.4,0,1,1,5.35,4.3,4.65,4.65,0,0,1-1.86,0,1.89,1.89,0,0,0-1.71.56l-3,3a2,2,0,0,0-.23,2.47L51.9,51.67a2,2,0,0,0,3,.3l6.59-6.59a2,2,0,0,0,.28-2.44l-8-12.74a2,2,0,0,1,.31-2.47l10-9.56a1.93,1.93,0,0,0,.58-1.74,4.55,4.55,0,0,1,.26-2.5,4.29,4.29,0,0,1,2.87-2.54A4.4,4.4,0,1,1,69,20a4.53,4.53,0,0,1-1-.11,2,2,0,0,0-1.81.49l-8.2,7.81a2,2,0,0,0-.31,2.47L63.56,40a2,2,0,0,0,3.06.35l22-22a1.89,1.89,0,0,0,.55-1.72A4.4,4.4,0,1,1,94,20a4.32,4.32,0,0,1-1.4-.08,1.91,1.91,0,0,0-1.73.54L76.6,34.7A2,2,0,0,0,77.4,38l8.16,2.56a2,2,0,0,0,2-.49l4.6-4.58a1.92,1.92,0,0,0,.55-1.74,4.47,4.47,0,0,1,.21-2.54,4.4,4.4,0,1,1,4.56,6A4.51,4.51,0,0,1,96,37.1a1.87,1.87,0,0,0-1.71.55l-5.92,5.9a2,2,0,0,1-2,.48L73,39.81a2,2,0,0,0-2,.49L60.73,50.54a2,2,0,0,0,.62,3.2l20.24,8.62a2,2,0,0,0,2.24-.5l.59-.66a1.93,1.93,0,0,0,.44-1.79,4.48,4.48,0,0,1-.07-2,4.4,4.4,0,1,1,4.95,5.18,4.36,4.36,0,0,1-1.3,0,1.92,1.92,0,0,0-1.71.64l-2.06,2.31a2,2,0,0,1-2.25.5L57.54,55.47a2,2,0,0,0-2.17.41L51.22,60a2,2,0,0,0,0,2.75c7.72,8,15.5,22.18,16.86,42.28a4.34,4.34,0,0,0,2.42,3.79,4.12,4.12,0,0,0,1.75.38,4.19,4.19,0,0,0,2.7-1C76.35,107,109.59,77.78,109.59,4a4.17,4.17,0,0,0-4.17-4.17C15.16-.17,1,34.4.49,35.87a4.16,4.16,0,0,0,.42,3.78,4.33,4.33,0,0,0,3.3,1.87C30.66,43.82,41.23,54,46.47,58Z" fill="#a5b452"/>
    <circle cx="9.29" cy="99.77" r="9.08" fill="#a5b452"/>
    <path d="M31.66,109.21a3.48,3.48,0,0,1-3.45-3C27,96.44,22.4,89.24,14.55,84.76a32,32,0,0,0-11.5-3.89,3.48,3.48,0,1,1,.58-6.93A38.29,38.29,0,0,1,18,78.72c6.77,3.87,15.25,11.62,17.11,26.58a3.46,3.46,0,0,1-3,3.88A3.11,3.11,0,0,1,31.66,109.21Z" fill="#a5b452"/>
    <path d="M45.05,109.21a3.48,3.48,0,0,1-3.44-3C39.77,91.45,32.82,80.51,21,73.65A48.28,48.28,0,0,0,3.17,67.6a3.48,3.48,0,0,1,.59-6.94,54.78,54.78,0,0,1,20.42,6.82C33.81,73,45.85,84,48.51,105.3a3.46,3.46,0,0,1-3,3.88A3.25,3.25,0,0,1,45.05,109.21Z" fill="#a5b452"/>
    <path d="M59.5,109.25A3.59,3.59,0,0,1,56,106.11C53.42,85.83,43.79,70.78,27.33,61.39A65.65,65.65,0,0,0,3.26,53.28a3.58,3.58,0,0,1,.61-7.13,72.35,72.35,0,0,1,27,9C43.61,62.44,59.53,77,63.05,105.23a3.58,3.58,0,0,1-3.11,4Z" fill="#a5b452"/>
  </g>
</svg>
