<svg id="Layer_1" data-name="Layer 1" xmlns="http://www.w3.org/2000/svg" viewBox="0 0 109.73 109.42">
  <title>Artboard 51</title>
  <g>
    <path d="M46.61,58.16a2.24,2.24,0,0,0,2.6-.17L50,57.2a2,2,0,0,0,.24-2.49L34.67,31.4a2,2,0,0,1,.24-2.48l4.69-4.76a2,2,0,0,0,.56-1.77,4.35,4.35,0,0,1-.11-1,4.4,4.4,0,1,1,5.35,4.3,4.32,4.32,0,0,1-1.86,0,1.87,1.87,0,0,0-1.71.57l-3,3a2,2,0,0,0-.24,2.48L52,51.84a2,2,0,0,0,3,.3l6.59-6.59a2,2,0,0,0,.27-2.44l-8-12.74a2,2,0,0,1,.31-2.47l10-9.56a2,2,0,0,0,.58-1.74,4.6,4.6,0,0,1,.25-2.49A4.34,4.34,0,0,1,68,11.56a4.4,4.4,0,1,1,1.2,8.64,4,4,0,0,1-1-.11,2,2,0,0,0-1.81.49l-8.2,7.81a2,2,0,0,0-.31,2.48l5.82,9.25a2,2,0,0,0,3,.35l22-22a1.88,1.88,0,0,0,.55-1.72,4.32,4.32,0,0,1-.08-1.4,4.4,4.4,0,1,1,4.84,4.84,4.32,4.32,0,0,1-1.4-.08,1.89,1.89,0,0,0-1.73.55L76.73,34.87a2,2,0,0,0,.81,3.27L85.7,40.7a2,2,0,0,0,2-.48l4.6-4.59a1.92,1.92,0,0,0,.55-1.74,4.4,4.4,0,1,1,4.77,3.46,4.51,4.51,0,0,1-1.43-.08,1.89,1.89,0,0,0-1.71.55l-5.93,5.9a2,2,0,0,1-2,.48L73.11,40a2,2,0,0,0-2,.49L60.87,50.71a2,2,0,0,0,.62,3.2l20.24,8.63A2,2,0,0,0,84,62l.59-.67A1.93,1.93,0,0,0,85,59.58a4.48,4.48,0,0,1-.07-2,4.4,4.4,0,1,1,4.95,5.19,4.78,4.78,0,0,1-1.31,0,1.91,1.91,0,0,0-1.7.64L84.8,65.75a2,2,0,0,1-2.24.5L57.67,55.64a2,2,0,0,0-2.16.42l-4.15,4.12a2,2,0,0,0,0,2.76c7.71,8,15.49,22.17,16.86,42.28A4.36,4.36,0,0,0,70.62,109a4.25,4.25,0,0,0,1.74.37,4.09,4.09,0,0,0,2.7-1C76.48,107.18,109.73,78,109.73,4.17A4.17,4.17,0,0,0,105.56,0C15.3,0,1.18,34.57.62,36.05a4.17,4.17,0,0,0,.43,3.77,4.33,4.33,0,0,0,3.3,1.87C30.8,44,41.37,54.22,46.61,58.16Z" fill="#272727"/>
    <circle cx="9.43" cy="99.95" r="9.08" fill="#272727"/>
    <path d="M31.8,109.38a3.47,3.47,0,0,1-3.45-3c-1.22-9.73-5.81-16.93-13.66-21.4A32.1,32.1,0,0,0,3.19,81a3.48,3.48,0,1,1,.58-6.93,38.29,38.29,0,0,1,14.37,4.78c6.77,3.87,15.24,11.62,17.11,26.58a3.48,3.48,0,0,1-3,3.89A3.1,3.1,0,0,1,31.8,109.38Z" fill="#272727"/>
    <path d="M45.19,109.38a3.46,3.46,0,0,1-3.44-3C39.91,91.62,33,80.68,21.1,73.82a48.46,48.46,0,0,0-17.8-6,3.48,3.48,0,0,1,.6-6.93,54.43,54.43,0,0,1,20.42,6.81C34,73.15,46,84.17,48.65,105.47a3.49,3.49,0,0,1-3,3.89A3.24,3.24,0,0,1,45.19,109.38Z" fill="#272727"/>
    <path d="M59.63,109.42a3.58,3.58,0,0,1-3.54-3.13C53.55,86,43.93,71,27.47,61.56A65.51,65.51,0,0,0,3.4,53.46,3.58,3.58,0,0,1,4,46.33a72,72,0,0,1,27,9c12.73,7.26,28.65,21.84,32.17,50.05a3.58,3.58,0,0,1-3.11,4A3.4,3.4,0,0,1,59.63,109.42Z" fill="#272727"/>
  </g>
</svg>
