<svg id="Layer_1" data-name="Layer 1" xmlns="http://www.w3.org/2000/svg" viewBox="0 0 271.03 110.66">
  <title>Artboard 52</title>
  <g>
    <path d="M48.62,107.92,42.13,78.67A1.87,1.87,0,0,0,40.3,77.2H13.85A1.88,1.88,0,0,0,12,78.67L5.53,107.92a1.88,1.88,0,0,1-1.84,1.48H2.38a1.88,1.88,0,0,1-1.83-2.29L22.49,8.2a1.88,1.88,0,0,1,1.84-1.47h5.49A1.87,1.87,0,0,1,31.65,8.2l22,98.91a1.88,1.88,0,0,1-1.84,2.29H50.45A1.87,1.87,0,0,1,48.62,107.92ZM15.75,72.19H38.4a1.88,1.88,0,0,0,1.83-2.29L28.91,19.07a1.88,1.88,0,0,0-3.67,0L13.91,69.9A1.89,1.89,0,0,0,15.75,72.19Z" fill="#272727" stroke="#272727" stroke-miterlimit="10"/>
    <path d="M99.06,35.64v1.25a1.88,1.88,0,0,1-1.88,1.88h-4A14.38,14.38,0,0,0,87.22,40a16.66,16.66,0,0,0-4.86,3.26A15,15,0,0,0,77.8,54.11v53.41a1.88,1.88,0,0,1-1.88,1.88H74.67a1.88,1.88,0,0,1-1.88-1.88V41.41a1.89,1.89,0,0,0-1.88-1.88H69.66a1.88,1.88,0,0,1-1.88-1.88V36.4a1.88,1.88,0,0,1,1.88-1.88h6.26A1.88,1.88,0,0,1,77.8,36.4v4.35a19.7,19.7,0,0,1,14.88-7h4.5A1.88,1.88,0,0,1,99.06,35.64Z" fill="#272727" stroke="#272727" stroke-miterlimit="10"/>
    <path d="M150,.5a1.88,1.88,0,0,1,1.88,1.88V107.52A1.88,1.88,0,0,1,150,109.4h-1.26a1.88,1.88,0,0,1-1.88-1.88v-.09a1.88,1.88,0,0,0-3-1.51,22.15,22.15,0,0,1-3.83,2.34,19.49,19.49,0,0,1-8.51,1.9,19.91,19.91,0,0,1-8-1.6,20,20,0,0,1-10.78-10.78,19.91,19.91,0,0,1-1.6-8V54.11a19.91,19.91,0,0,1,1.6-8,20,20,0,0,1,10.78-10.78,19.91,19.91,0,0,1,8-1.6,19.77,19.77,0,0,1,12.33,4.14,1.88,1.88,0,0,0,3-1.5v-34A1.88,1.88,0,0,1,148.78.5ZM131.56,105.15a14.94,14.94,0,0,0,6-1.22,15.17,15.17,0,0,0,8.13-8.13,14.91,14.91,0,0,0,1.21-6V54.11a15,15,0,0,0-1.21-6A15.2,15.2,0,0,0,137.56,40a15.36,15.36,0,0,0-12,0,15.14,15.14,0,0,0-8.12,8.12,15,15,0,0,0-1.22,6v35.7a14.92,14.92,0,0,0,1.22,6,15.11,15.11,0,0,0,8.12,8.13A15,15,0,0,0,131.56,105.15Z" fill="#272727" stroke="#272727" stroke-miterlimit="10"/>
    <path d="M200.06,67.78q-1.37.47-4.56,1.75c-2.12.86-4.43,1.75-6.91,2.66s-4.88,1.82-7.21,2.73c-1.66.65-3.06,1.17-4.21,1.56a1.88,1.88,0,0,0-1.26,1.78V89.81a14.75,14.75,0,0,0,1.22,6,15.11,15.11,0,0,0,8.12,8.13,15.36,15.36,0,0,0,12,0,15.17,15.17,0,0,0,8.13-8.13,14.58,14.58,0,0,0,1.12-4.3,1.88,1.88,0,0,1,1.86-1.69h1.27a1.88,1.88,0,0,1,1.88,2,20,20,0,0,1-1.5,5.94,20.49,20.49,0,0,1-4.33,6.45,20.2,20.2,0,0,1-6.46,4.33,20.65,20.65,0,0,1-15.94,0,20.2,20.2,0,0,1-6.46-4.33,20.49,20.49,0,0,1-4.33-6.45,20.08,20.08,0,0,1-1.59-8V54.11a20.08,20.08,0,0,1,1.59-8,20.49,20.49,0,0,1,4.33-6.45,20.2,20.2,0,0,1,6.46-4.33,20.65,20.65,0,0,1,15.94,0,20.2,20.2,0,0,1,6.46,4.33A20.49,20.49,0,0,1,210,46.14,19.7,19.7,0,0,1,211.6,54v.15Q211.6,63.53,200.06,67.78Zm-8.81-29a14.94,14.94,0,0,0-6,1.22,15.14,15.14,0,0,0-8.12,8.12,14.84,14.84,0,0,0-1.22,6v14.7a1.89,1.89,0,0,0,2.57,1.76l3.05-1.19q3.34-1.29,6.68-2.51t6.15-2.28l4-1.52a21.74,21.74,0,0,0,5.47-3.19A7.07,7.07,0,0,0,206.59,54,14.41,14.41,0,0,0,205.38,48a16,16,0,0,0-3.27-4.79A15.66,15.66,0,0,0,197.25,40,14.94,14.94,0,0,0,191.25,38.77Z" fill="#272727" stroke="#272727" stroke-miterlimit="10"/>
    <path d="M250.18,33.76a19.91,19.91,0,0,1,8,1.6,20.2,20.2,0,0,1,6.46,4.33,20.49,20.49,0,0,1,4.33,6.45,20.08,20.08,0,0,1,1.59,8v53.41a1.88,1.88,0,0,1-1.88,1.88H267.4a1.88,1.88,0,0,1-1.88-1.88V54.11a15,15,0,0,0-1.22-6A15.49,15.49,0,0,0,261,43.25,15.66,15.66,0,0,0,256.18,40a15.36,15.36,0,0,0-12,0,15.66,15.66,0,0,0-4.86,3.26,15.32,15.32,0,0,0-3.26,4.86,14.84,14.84,0,0,0-1.22,6v53.41A1.88,1.88,0,0,1,233,109.4h-1.25a1.88,1.88,0,0,1-1.88-1.88V36.4a1.88,1.88,0,0,1,1.88-1.88H233a1.88,1.88,0,0,1,1.88,1.88h0a1.88,1.88,0,0,0,3,1.5,19.77,19.77,0,0,1,12.33-4.14Z" fill="#272727" stroke="#272727" stroke-miterlimit="10"/>
  </g>
</svg>
